<svg width="179" height="179" viewBox="0 0 179 179" fill="none" xmlns="http://www.w3.org/2000/svg">
<g filter="url(#filter0_ii_11_115)">
<rect x="7.36084" y="7.93921" width="130.736" height="130.736" rx="65.3681" fill="#2C2F33"/>
</g>
<path d="M72.5304 20.1483C72.5304 17.365 70.2698 15.0859 67.497 15.3274C59.4622 16.0274 51.6421 18.3974 44.5455 22.3066C35.9738 27.0284 28.7363 33.8423 23.5066 42.114C18.277 50.3856 15.2253 59.846 14.6357 69.6144C14.0462 79.3828 15.9379 89.1415 20.1347 97.9821C24.3315 106.823 30.697 114.458 38.6386 120.176C46.5801 125.895 55.8395 129.511 65.5546 130.688C75.2697 131.865 85.1247 130.564 94.2021 126.908C101.717 123.88 108.497 119.319 114.119 113.536C116.059 111.541 115.722 108.348 113.566 106.589C111.409 104.829 108.252 105.173 106.275 107.133C101.755 111.617 96.3731 115.167 90.4359 117.558C82.9361 120.58 74.7937 121.654 66.7669 120.681C58.74 119.709 51.0898 116.721 44.5283 111.997C37.9669 107.272 32.7076 100.964 29.2401 93.6596C25.7726 86.3553 24.2096 78.2924 24.6968 70.2216C25.1839 62.1508 27.7052 54.3344 32.026 47.5003C36.3469 40.6661 42.3267 35.0363 49.4088 31.1351C55.0152 28.0467 61.168 26.1211 67.4999 25.4527C70.2679 25.1605 72.5304 22.9316 72.5304 20.1483Z" fill="#65A8FC"/>
<g filter="url(#filter1_d_11_115)">
<rect x="25.0123" y="24.8916" width="95.7349" height="95.7349" rx="47.8675" fill="#2C2F33"/>
</g>
<g filter="url(#filter2_ii_11_115)">
<rect x="35.4943" y="35.3738" width="74.7711" height="74.7711" rx="37.3855" fill="#2C2F33"/>
</g>
<path d="M64.1974 66.4V67.966L59.3014 79H56.7994L61.5334 68.38H56.5834V70.522H54.4054V66.4H64.1974ZM70.549 79.18C69.541 79.18 68.641 78.928 67.849 78.424C67.057 77.908 66.433 77.164 65.977 76.192C65.521 75.208 65.293 74.044 65.293 72.7C65.293 71.356 65.521 70.198 65.977 69.226C66.433 68.242 67.057 67.498 67.849 66.994C68.641 66.478 69.541 66.22 70.549 66.22C71.557 66.22 72.457 66.478 73.249 66.994C74.053 67.498 74.683 68.242 75.139 69.226C75.595 70.198 75.823 71.356 75.823 72.7C75.823 74.044 75.595 75.208 75.139 76.192C74.683 77.164 74.053 77.908 73.249 78.424C72.457 78.928 71.557 79.18 70.549 79.18ZM70.549 77.146C71.449 77.146 72.157 76.774 72.673 76.03C73.201 75.286 73.465 74.176 73.465 72.7C73.465 71.224 73.201 70.114 72.673 69.37C72.157 68.626 71.449 68.254 70.549 68.254C69.661 68.254 68.953 68.626 68.425 69.37C67.909 70.114 67.651 71.224 67.651 72.7C67.651 74.176 67.909 75.286 68.425 76.03C68.953 76.774 69.661 77.146 70.549 77.146ZM80.2123 73.186C79.3123 73.186 78.5863 72.868 78.0343 72.232C77.4823 71.596 77.2063 70.762 77.2063 69.73C77.2063 68.698 77.4823 67.864 78.0343 67.228C78.5863 66.592 79.3123 66.274 80.2123 66.274C81.1123 66.274 81.8383 66.592 82.3903 67.228C82.9543 67.852 83.2363 68.686 83.2363 69.73C83.2363 70.774 82.9543 71.614 82.3903 72.25C81.8383 72.874 81.1123 73.186 80.2123 73.186ZM87.7723 66.4H89.5363L80.9323 79H79.1683L87.7723 66.4ZM80.2123 71.926C80.7043 71.926 81.0823 71.734 81.3463 71.35C81.6223 70.966 81.7603 70.426 81.7603 69.73C81.7603 69.034 81.6223 68.494 81.3463 68.11C81.0823 67.726 80.7043 67.534 80.2123 67.534C79.7443 67.534 79.3663 67.732 79.0783 68.128C78.8023 68.512 78.6643 69.046 78.6643 69.73C78.6643 70.414 78.8023 70.954 79.0783 71.35C79.3663 71.734 79.7443 71.926 80.2123 71.926ZM88.4743 79.126C87.5743 79.126 86.8483 78.808 86.2963 78.172C85.7443 77.536 85.4683 76.702 85.4683 75.67C85.4683 74.638 85.7443 73.804 86.2963 73.168C86.8483 72.532 87.5743 72.214 88.4743 72.214C89.3743 72.214 90.1003 72.532 90.6523 73.168C91.2163 73.804 91.4983 74.638 91.4983 75.67C91.4983 76.702 91.2163 77.536 90.6523 78.172C90.1003 78.808 89.3743 79.126 88.4743 79.126ZM88.4743 77.866C88.9543 77.866 89.3323 77.674 89.6083 77.29C89.8843 76.894 90.0223 76.354 90.0223 75.67C90.0223 74.986 89.8843 74.452 89.6083 74.068C89.3323 73.672 88.9543 73.474 88.4743 73.474C87.9943 73.474 87.6163 73.666 87.3403 74.05C87.0643 74.434 86.9263 74.974 86.9263 75.67C86.9263 76.366 87.0643 76.906 87.3403 77.29C87.6163 77.674 87.9943 77.866 88.4743 77.866Z" fill="#EEEEEE"/>
<defs>
<filter id="filter0_ii_11_115" x="-9.20889" y="-8.63052" width="163.876" height="163.876" filterUnits="userSpaceOnUse" color-interpolation-filters="sRGB">
<feFlood flood-opacity="0" result="BackgroundImageFix"/>
<feBlend mode="normal" in="SourceGraphic" in2="BackgroundImageFix" result="shape"/>
<feColorMatrix in="SourceAlpha" type="matrix" values="0 0 0 0 0 0 0 0 0 0 0 0 0 0 0 0 0 0 127 0" result="hardAlpha"/>
<feOffset dx="16.5697" dy="16.5697"/>
<feGaussianBlur stdDeviation="20.7122"/>
<feComposite in2="hardAlpha" operator="arithmetic" k2="-1" k3="1"/>
<feColorMatrix type="matrix" values="0 0 0 0 0 0 0 0 0 0 0 0 0 0 0 0 0 0 1 0"/>
<feBlend mode="normal" in2="shape" result="effect1_innerShadow_11_115"/>
<feColorMatrix in="SourceAlpha" type="matrix" values="0 0 0 0 0 0 0 0 0 0 0 0 0 0 0 0 0 0 127 0" result="hardAlpha"/>
<feOffset dx="-16.5697" dy="-16.5697"/>
<feGaussianBlur stdDeviation="20.7122"/>
<feComposite in2="hardAlpha" operator="arithmetic" k2="-1" k3="1"/>
<feColorMatrix type="matrix" values="0 0 0 0 0.231373 0 0 0 0 0.266667 0 0 0 0 0.317647 0 0 0 1 0"/>
<feBlend mode="normal" in2="effect1_innerShadow_11_115" result="effect2_innerShadow_11_115"/>
</filter>
<filter id="filter1_d_11_115" x="0.15773" y="0.0370026" width="178.584" height="178.584" filterUnits="userSpaceOnUse" color-interpolation-filters="sRGB">
<feFlood flood-opacity="0" result="BackgroundImageFix"/>
<feColorMatrix in="SourceAlpha" type="matrix" values="0 0 0 0 0 0 0 0 0 0 0 0 0 0 0 0 0 0 127 0" result="hardAlpha"/>
<feOffset dx="16.5697" dy="16.5697"/>
<feGaussianBlur stdDeviation="20.7122"/>
<feColorMatrix type="matrix" values="0 0 0 0 0 0 0 0 0 0 0 0 0 0 0 0 0 0 0.5 0"/>
<feBlend mode="normal" in2="BackgroundImageFix" result="effect1_dropShadow_11_115"/>
<feBlend mode="normal" in="SourceGraphic" in2="effect1_dropShadow_11_115" result="shape"/>
</filter>
<filter id="filter2_ii_11_115" x="18.9245" y="18.804" width="107.911" height="107.91" filterUnits="userSpaceOnUse" color-interpolation-filters="sRGB">
<feFlood flood-opacity="0" result="BackgroundImageFix"/>
<feBlend mode="normal" in="SourceGraphic" in2="BackgroundImageFix" result="shape"/>
<feColorMatrix in="SourceAlpha" type="matrix" values="0 0 0 0 0 0 0 0 0 0 0 0 0 0 0 0 0 0 127 0" result="hardAlpha"/>
<feOffset dx="16.5697" dy="16.5697"/>
<feGaussianBlur stdDeviation="20.7122"/>
<feComposite in2="hardAlpha" operator="arithmetic" k2="-1" k3="1"/>
<feColorMatrix type="matrix" values="0 0 0 0 0 0 0 0 0 0 0 0 0 0 0 0 0 0 0.5 0"/>
<feBlend mode="normal" in2="shape" result="effect1_innerShadow_11_115"/>
<feColorMatrix in="SourceAlpha" type="matrix" values="0 0 0 0 0 0 0 0 0 0 0 0 0 0 0 0 0 0 127 0" result="hardAlpha"/>
<feOffset dx="-16.5697" dy="-16.5697"/>
<feGaussianBlur stdDeviation="20.7122"/>
<feComposite in2="hardAlpha" operator="arithmetic" k2="-1" k3="1"/>
<feColorMatrix type="matrix" values="0 0 0 0 0.231373 0 0 0 0 0.266667 0 0 0 0 0.317647 0 0 0 0.5 0"/>
<feBlend mode="normal" in2="effect1_innerShadow_11_115" result="effect2_innerShadow_11_115"/>
</filter>
</defs>
</svg>
