<svg width="151" height="134" viewBox="0 0 151 134" fill="none" xmlns="http://www.w3.org/2000/svg">
<g filter="url(#filter0_dd_28_30)">
<rect x="21" y="19" width="105" height="90" rx="24.8921" fill="#144884"/>
</g>
<path d="M48.668 62.092C48.668 59.764 48.092 58.036 46.94 56.908C45.812 55.756 44.336 55.18 42.512 55.18C42.08 55.18 41.672 55.192 41.288 55.216C40.904 55.24 40.52 55.288 40.136 55.36V68.752C40.448 68.824 40.82 68.884 41.252 68.932C41.708 68.956 42.14 68.968 42.548 68.968C44.42 68.968 45.908 68.404 47.012 67.276C48.116 66.124 48.668 64.396 48.668 62.092ZM54.5 62.02C54.5 63.94 54.212 65.62 53.636 67.06C53.06 68.5 52.244 69.7 51.188 70.66C50.156 71.62 48.896 72.34 47.408 72.82C45.944 73.3 44.312 73.54 42.512 73.54C42.104 73.54 41.636 73.528 41.108 73.504C40.604 73.48 40.076 73.432 39.524 73.36C38.996 73.312 38.456 73.228 37.904 73.108C37.352 73.012 36.848 72.88 36.392 72.712C35.144 72.256 34.52 71.44 34.52 70.264V53.128C34.52 52.648 34.64 52.276 34.88 52.012C35.144 51.748 35.516 51.532 35.996 51.364C36.98 51.052 38.024 50.848 39.128 50.752C40.232 50.656 41.24 50.608 42.152 50.608C44 50.608 45.68 50.836 47.192 51.292C48.704 51.748 50 52.456 51.08 53.416C52.16 54.352 53 55.54 53.6 56.98C54.2 58.396 54.5 60.076 54.5 62.02ZM75.8511 56.836C75.8511 57.916 75.5511 58.852 74.9511 59.644C74.3751 60.412 73.5351 61.012 72.4311 61.444C73.8231 61.9 74.8671 62.572 75.5631 63.46C76.2591 64.348 76.6071 65.416 76.6071 66.664C76.6071 68.992 75.7431 70.72 74.0151 71.848C72.3111 72.976 69.8391 73.54 66.5991 73.54C66.1671 73.54 65.6751 73.528 65.1231 73.504C64.5951 73.48 64.0431 73.432 63.4671 73.36C62.9151 73.312 62.3511 73.228 61.7751 73.108C61.2231 73.012 60.7191 72.88 60.2631 72.712C59.0151 72.256 58.3911 71.44 58.3911 70.264V53.128C58.3911 52.648 58.5111 52.276 58.7511 52.012C59.0151 51.748 59.3871 51.544 59.8671 51.4C60.6591 51.136 61.6431 50.944 62.8191 50.824C63.9951 50.68 65.2071 50.608 66.4551 50.608C69.4551 50.608 71.7711 51.124 73.4031 52.156C75.0351 53.164 75.8511 54.724 75.8511 56.836ZM70.8471 66.412C70.8471 64.708 69.7551 63.856 67.5711 63.856H63.8631V68.896C64.2471 68.992 64.7271 69.064 65.3031 69.112C65.8791 69.16 66.4311 69.184 66.9591 69.184C68.1111 69.184 69.0471 68.968 69.7671 68.536C70.4871 68.08 70.8471 67.372 70.8471 66.412ZM63.8631 59.86H67.2111C68.1471 59.86 68.8791 59.644 69.4071 59.212C69.9351 58.78 70.1991 58.144 70.1991 57.304C70.1991 56.536 69.8871 55.948 69.2631 55.54C68.6631 55.108 67.7511 54.892 66.5271 54.892C66.0711 54.892 65.5911 54.916 65.0871 54.964C64.5831 54.988 64.1751 55.024 63.8631 55.072V59.86ZM95.1195 67.564C94.8315 67.804 94.4595 67.996 94.0035 68.14C93.5475 68.284 93.0315 68.356 92.4555 68.356C91.6875 68.356 91.0395 68.26 90.5115 68.068C90.0075 67.876 89.6715 67.54 89.5035 67.06C88.7355 64.828 88.0755 62.98 87.5235 61.516C86.9955 60.028 86.5755 58.744 86.2635 57.664H86.1195C86.0475 59.152 85.9875 60.52 85.9395 61.768C85.8915 62.992 85.8435 64.192 85.7955 65.368C85.7715 66.544 85.7355 67.732 85.6875 68.932C85.6395 70.132 85.5795 71.452 85.5075 72.892C85.2435 72.988 84.8835 73.072 84.4275 73.144C83.9955 73.24 83.5395 73.288 83.0595 73.288C82.1235 73.288 81.3915 73.132 80.8635 72.82C80.3355 72.484 80.0715 71.92 80.0715 71.128C80.0715 70.672 80.0835 70.048 80.1075 69.256C80.1555 68.44 80.2035 67.516 80.2515 66.484C80.3235 65.428 80.3955 64.3 80.4675 63.1C80.5635 61.9 80.6475 60.688 80.7195 59.464C80.8155 58.216 80.8995 56.992 80.9715 55.792C81.0435 54.568 81.1155 53.44 81.1875 52.408C81.3795 52.144 81.7635 51.856 82.3395 51.544C82.9395 51.208 83.7675 51.04 84.8235 51.04C85.9515 51.04 86.8395 51.22 87.4875 51.58C88.1355 51.94 88.6275 52.528 88.9635 53.344C89.2275 53.992 89.5035 54.724 89.7915 55.54C90.0795 56.332 90.3675 57.148 90.6555 57.988C90.9435 58.828 91.2195 59.668 91.4835 60.508C91.7715 61.324 92.0355 62.08 92.2755 62.776H92.4555C93.1275 60.664 93.7995 58.624 94.4715 56.656C95.1435 54.664 95.7315 52.996 96.2355 51.652C96.5715 51.484 96.9915 51.34 97.4955 51.22C98.0235 51.1 98.5995 51.04 99.2235 51.04C100.304 51.04 101.168 51.196 101.816 51.508C102.464 51.82 102.848 52.276 102.968 52.876C103.064 53.356 103.172 54.088 103.292 55.072C103.412 56.056 103.532 57.184 103.652 58.456C103.772 59.728 103.892 61.072 104.012 62.488C104.132 63.88 104.24 65.236 104.336 66.556C104.432 67.852 104.516 69.04 104.588 70.12C104.66 71.2 104.708 72.04 104.732 72.64C104.372 72.856 103.988 73.012 103.58 73.108C103.172 73.228 102.656 73.288 102.032 73.288C101.24 73.288 100.556 73.144 99.9795 72.856C99.4275 72.568 99.1275 72.004 99.0795 71.164C98.9115 68.38 98.7915 65.836 98.7195 63.532C98.6715 61.204 98.6115 59.296 98.5395 57.808H98.3595C98.0715 58.816 97.6515 60.088 97.0995 61.624C96.5715 63.16 95.9115 65.14 95.1195 67.564ZM107.533 70.336C107.533 69.424 107.809 68.656 108.361 68.032C108.937 67.408 109.729 67.096 110.737 67.096C111.721 67.096 112.501 67.408 113.077 68.032C113.653 68.656 113.941 69.424 113.941 70.336C113.941 71.248 113.653 72.016 113.077 72.64C112.501 73.264 111.721 73.576 110.737 73.576C109.729 73.576 108.937 73.264 108.361 72.64C107.809 72.016 107.533 71.248 107.533 70.336Z" fill="#EBDBDB"/>
<defs>
<filter id="filter0_dd_28_30" x="-3.89209" y="-5.89209" width="154.784" height="139.784" filterUnits="userSpaceOnUse" color-interpolation-filters="sRGB">
<feFlood flood-opacity="0" result="BackgroundImageFix"/>
<feColorMatrix in="SourceAlpha" type="matrix" values="0 0 0 0 0 0 0 0 0 0 0 0 0 0 0 0 0 0 127 0" result="hardAlpha"/>
<feOffset dx="6.22302" dy="6.22302"/>
<feGaussianBlur stdDeviation="9.33453"/>
<feColorMatrix type="matrix" values="0 0 0 0 0 0 0 0 0 0 0 0 0 0 0 0 0 0 1 0"/>
<feBlend mode="normal" in2="BackgroundImageFix" result="effect1_dropShadow_28_30"/>
<feColorMatrix in="SourceAlpha" type="matrix" values="0 0 0 0 0 0 0 0 0 0 0 0 0 0 0 0 0 0 127 0" result="hardAlpha"/>
<feOffset dx="-6.22302" dy="-6.22302"/>
<feGaussianBlur stdDeviation="9.33453"/>
<feColorMatrix type="matrix" values="0 0 0 0 0.231373 0 0 0 0 0.266667 0 0 0 0 0.317647 0 0 0 1 0"/>
<feBlend mode="normal" in2="effect1_dropShadow_28_30" result="effect2_dropShadow_28_30"/>
<feBlend mode="normal" in="SourceGraphic" in2="effect2_dropShadow_28_30" result="shape"/>
</filter>
</defs>
</svg>
